Coordinates
version=1
nRows=29
nColumns=24
inDegrees=yes

Units are S.I. units (second, meters, Newtons, ...)
Angles are in degrees.

endheader
time	pelvis_tilt	pelvis_list	pelvis_rotation	pelvis_tx	pelvis_ty	pelvis_tz	hip_flexion_r	hip_adduction_r	hip_rotation_r	knee_angle_r	ankle_angle_r	subtalar_angle_r	mtp_angle_r	hip_flexion_l	hip_adduction_l	hip_rotation_l	knee_angle_l	ankle_angle_l	subtalar_angle_l	mtp_angle_l	lumbar_extension	lumbar_bending	lumbar_rotation
      1.07483333	     -0.61433013	      1.99254824	      0.33678480	      0.54954361	      1.01535034	      0.32131986	     11.47261923	      1.57884993	      0.69955888	    -19.19892223	      7.26995355	     -7.19107423	     10.79323037	     15.81836637	      1.66822541	     -5.62938605	    -69.08449704	      3.40012684	     -7.68388404	      8.24385113	     -1.02717074	     -1.04800823	      4.32154609
      1.07900000	     -0.59576083	      2.07635867	      0.04662664	      0.55420117	      1.01595654	      0.32166896	     11.05176561	      1.50604310	      0.81543532	    -18.93005083	      7.40410841	     -6.93895225	     10.93043491	     16.34806337	      1.72672249	     -5.89926235	    -68.81904282	      3.51788729	     -7.91879141	      8.18698589	     -1.06543927	     -1.12059800	      4.64342201
      1.08316667	     -0.58899354	      2.12847440	     -0.23435017	      0.55884108	      1.01650270	      0.32202617	     10.63540542	      1.46959299	      0.95311108	    -18.63901209	      7.46854967	     -6.75619281	     10.97632527	     16.88986834	      1.73414405	     -6.16686978	    -68.54676196	      3.68829808	     -8.09506518	      8.16642603	     -1.08825650	     -1.15498520	      4.70861558
      1.08733333	     -0.57871130	      2.21191612	     -0.51920233	      0.56344582	      1.01703859	      0.32236961	     10.23907159	      1.38950084	      1.05986463	    -18.39531160	      7.60976404	     -6.49195657	     11.10315007	     17.41361464	      1.77980187	     -6.43303112	    -68.21426944	      3.76950039	     -8.38139237	      8.09876569	     -1.13717569	     -1.25482215	      5.02408555
      1.09150000	     -0.55517918	      2.26541036	     -0.79124608	      0.56804365	      1.01754006	      0.32270047	      9.81707335	      1.33964897	      1.17103650	    -18.12623611	      7.72127236	     -6.26181500	     11.23744897	     17.92113437	      1.78422272	     -6.68215405	    -67.87782244	      3.89522565	     -8.59316456	      8.02100229	     -1.18704568	     -1.30608664	      5.23245564
      1.09566667	     -0.55308639	      2.32243999	     -1.06333499	      0.57263352	      1.01800048	      0.32301992	      9.41938663	      1.28545503	      1.30718162	    -17.85664799	      7.78622121	     -6.07952791	     11.28430567	     18.43927621	      1.78705338	     -6.93021376	    -67.50173238	      4.03915032	     -8.77090169	      7.99211432	     -1.21355883	     -1.33661257	      5.29262982
      1.09983333	     -0.54967634	      2.37260436	     -1.33456678	      0.57719580	      1.01840609	      0.32333787	      9.03308572	      1.23323734	      1.42090678	    -17.61192671	      7.90019330	     -5.85098125	     11.35788540	     18.95178940	      1.77641624	     -7.17696315	    -67.10479094	      4.13271166	     -9.00900997	      7.94168941	     -1.24805592	     -1.39260459	      5.47712654
      1.10400000	     -0.52992088	      2.42556221	     -1.58869177	      0.58174859	      1.01882501	      0.32362290	      8.62228079	      1.17304232	      1.53538499	    -17.35444580	      8.00138843	     -5.64096842	     11.41339964	     19.43441311	      1.77595624	     -7.39085117	    -66.66873364	      4.24259123	     -9.18390049	      7.90181519	     -1.30083468	     -1.43342044	      5.61280470
      1.10816667	     -0.50223370	      2.48021141	     -1.83876317	      0.58630696	      1.01922219	      0.32389405	      8.21270426	      1.10174879	      1.60115558	    -17.11796383	      8.15056648	     -5.38980290	     11.51268010	     19.89622053	      1.77068457	     -7.60878797	    -66.19860598	      4.30798886	     -9.38692871	      7.82486677	     -1.35234176	     -1.50513440	      5.87274287
      1.11233333	     -0.51070484	      2.51706555	     -2.08506938	      0.59083237	      1.01952501	      0.32415911	      7.83770228	      1.05497089	      1.72449569	    -16.86809363	      8.23499518	     -5.19404510	     11.55955383	     20.39447735	      1.74355380	     -7.80486090	    -65.71655780	      4.41673485	     -9.50216083	      7.78805082	     -1.38528126	     -1.52950593	      5.95244611
      1.11650000	     -0.52153999	      2.53839601	     -2.28773993	      0.59538928	      1.01979725	      0.32436713	      7.44753101	      1.01805733	      1.80550641	    -16.59477749	      8.34816241	     -5.04671266	     11.58156717	     20.88777801	      1.71168000	     -7.94525242	    -65.21169942	      4.51752577	     -9.58068858	      7.77115021	     -1.38421185	     -1.54329211	      6.00443255
      1.12066667	     -0.50485292	      2.61251669	     -2.56743213	      0.59987085	      1.02006536	      0.32462537	      7.09434696	      0.91553113	      1.88674335	    -16.43469288	      8.52511627	     -4.69989147	     11.69242830	     21.32726140	      1.71305018	     -8.17656298	    -64.64163879	      4.55187511	     -9.74136213	      7.67367024	     -1.45642096	     -1.62279593	      6.36364173
      1.12483333	     -0.51495310	      2.61918642	     -2.77557641	      0.60440209	      1.02027455	      0.32482085	      6.71128937	      0.88987010	      1.97446316	    -16.17162894	      8.61206200	     -4.55540480	     11.71201339	     21.79762058	      1.65537001	     -8.31241281	    -64.08313191	      4.64446996	     -9.77344285	      7.65786351	     -1.46152126	     -1.61027001	      6.38275918
      1.12900000	     -0.47808050	      2.66382337	     -3.03761371	      0.60888098	      1.02050565	      0.32506707	      6.32295187	      0.81485001	      2.06097107	    -15.98609802	      8.76350802	     -4.25198630	     11.81243338	     22.19515989	      1.61590433	     -8.51812248	    -63.47044747	      4.70614446	     -9.79740121	      7.56624476	     -1.55935868	     -1.66160819	      6.64367174
      1.13316667	     -0.49468210	      2.67131199	     -3.24642036	      0.61339746	      1.02065367	      0.32523801	      5.95568956	      0.78259991	      2.15249776	    -15.73827744	      8.85138037	     -4.10722799	     11.83081135	     22.64647937	      1.55770586	     -8.63901549	    -62.84605042	      4.77072779	     -9.79459450	      7.55100825	     -1.55972252	     -1.64716523	      6.66314164
      1.13733333	     -0.46844223	      2.70652627	     -3.50581282	      0.61786995	      1.02081117	      0.32546697	      5.58590394	      0.71242282	      2.23734633	    -15.56604763	      9.00589164	     -3.81100518	     11.91528394	     23.03072638	      1.49960648	     -8.83375402	    -62.17846005	      4.82874649	     -9.72212754	      7.47511712	     -1.64503356	     -1.69113852	      6.90788667
      1.14150000	     -0.46277200	      2.72555306	     -3.74667811	      0.62234929	      1.02091444	      0.32565804	      5.22470079	      0.66033257	      2.33802351	    -15.36792899	      9.10034489	     -3.60450573	     11.95978764	     23.42773052	      1.43369891	     -8.98944803	    -61.48683918	      4.86711693	     -9.64536226	      7.43619069	     -1.69039535	     -1.69497422	      6.98851519
      1.14566667	     -0.46683162	      2.74036185	     -3.98275163	      0.62683766	      1.02097649	      0.32584527	      4.87617004	      0.61040547	      2.42829955	    -15.17706356	      9.22510689	     -3.37854445	     12.00357618	     23.82232077	      1.35964442	     -9.13666799	    -60.76938253	      4.90916750	     -9.51493631	      7.40095748	     -1.72625447	     -1.70421875	      7.11276510
      1.14983333	     -0.44551428	      2.74963717	     -4.20514267	      0.63132509	      1.02103715	      0.32600048	      4.49969141	      0.55799716	      2.48594371	    -14.98860470	      9.38852674	     -3.12436225	     12.06393825	     24.17731982	      1.28752511	     -9.26049471	    -60.02653056	      4.96802049	     -9.35122367	      7.35475471	     -1.79292044	     -1.71670191	      7.29615294
      1.15400000	     -0.46824504	      2.75509480	     -4.44240461	      0.63580212	      1.02100083	      0.32616429	      4.18172983	      0.51490588	      2.58503298	    -14.81711951	      9.49301094	     -2.91981171	     12.09833381	     24.56699206	      1.19956282	     -9.39410348	    -59.25556627	      4.98525478	     -9.16837665	      7.33224334	     -1.80883240	     -1.70704904	      7.38111465
      1.15816667	     -0.45506046	      2.76776872	     -4.66613684	      0.64030930	      1.02100299	      0.32630730	      3.82058771	      0.45456702	      2.64492521	    -14.64265773	      9.66007214	     -2.66284878	     12.14622787	     24.89854511	      1.12661239	     -9.51143009	    -58.44760949	      5.03051534	     -8.93743284	      7.30657368	     -1.86562842	     -1.71945874	      7.54717269
      1.16233333	     -0.47309146	      2.75868730	     -4.88987299	      0.64480843	      1.02091205	      0.32644233	      3.49635836	      0.41992290	      2.72303351	    -14.47533795	      9.79315718	     -2.43293069	     12.18910365	     25.25563112	      1.02457154	     -9.61963643	    -57.62735430	      5.05699735	     -8.67942575	      7.29069630	     -1.88928463	     -1.69948418	      7.67158011
      1.16650000	     -0.46461758	      2.76015762	     -5.11605468	      0.64932809	      1.02085676	      0.32657891	      3.14351328	      0.36866046	      2.79454237	    -14.30662599	      9.93143195	     -2.21303381	     12.22399051	     25.56076163	      0.93366260	     -9.73152253	    -56.76056314	      5.07597851	     -8.39588001	      7.28632097	     -1.93859995	     -1.69675003	      7.78461756
      1.17066667	     -0.47745739	      2.75463607	     -5.33527608	      0.65385987	      1.02072629	      0.32669449	      2.81716891	      0.32372593	      2.85770970	    -14.14895634	     10.07612134	     -1.98274826	     12.25582951	     25.87797346	      0.83493829	     -9.83103743	    -55.87529014	      5.09252667	     -8.08780099	      7.29247698	     -1.96502421	     -1.68286153	      7.90054847
      1.17483333	     -0.49067892	      2.74587180	     -5.55597874	      0.65841225	      1.02059669	      0.32681217	      2.48840135	      0.28208368	      2.93367643	    -13.98525059	     10.18332030	     -1.78754686	     12.27367204	     26.17461009	      0.73112396	     -9.92818606	    -54.94997109	      5.07130452	     -7.76912024	      7.30287295	     -1.98773643	     -1.66563585	      7.97058998
      1.17900000	     -0.48414609	      2.73706090	     -5.76898407	      0.66297678	      1.02045800	      0.32691155	      2.13893856	      0.23405607	      2.99030704	    -13.82609696	     10.32898902	     -1.57182792	     12.29134823	     26.43418767	      0.63097147	    -10.01755588	    -53.99880417	      5.07672646	     -7.41179735	      7.32114068	     -2.03413965	     -1.65306493	      8.06788137
      1.18316667	     -0.49237342	      2.71785858	     -5.97455271	      0.66755677	      1.02026736	      0.32699797	      1.80343153	      0.19698176	      3.04005494	    -13.66647376	     10.46971521	     -1.35894650	     12.30641639	     26.69683629	      0.51949197	    -10.09566543	    -53.02681706	      5.07195704	     -7.04081744	      7.34435899	     -2.06608995	     -1.62850695	      8.15870964
      1.18733333	     -0.49120867	      2.69449827	     -6.17311228	      0.67217098	      1.02006694	      0.32706030	      1.45629303	      0.15864755	      3.06621591	    -13.51041768	     10.65579143	     -1.11309749	     12.32674017	     26.93133739	      0.40831962	    -10.16545131	    -52.02959217	      5.10712103	     -6.65187620	      7.39044321	     -2.10619077	     -1.59774620	      8.29472286
      1.19150000	     -0.50340749	      2.68302021	     -6.37880651	      0.67678705	      1.01983700	      0.32714096	      1.13143313	      0.11042545	      3.11541792	    -13.36514167	     10.77541958	     -0.92476770	     12.33879762	     27.15956586	      0.30566529	    -10.23907595	    -50.98573613	      5.05865266	     -6.27878405	      7.42390034	     -2.12732525	     -1.58337607	      8.35591307
